Description

Sinopse e detalhes

Um terrível vírus incurável, criado pelo homem, dizimou a população de Nova York. Robert Neville (Will Smith) é um cientista brilhante que, sem saber como, tornou-se imune ao vírus. Há 3 anos ele percorre a cidade enviando mensagens de rádio, na esperança de encontrar algum sobrevivente. Robert é sempre acompanhado por vítimas mutantes do vírus, que aguardam o momento certo para atacá-lo. Paralelamente ele realiza testes com seu próprio sangue, buscando encontrar um meio de reverter os efeitos do vírus

Format : AVI
Format/Info : Audio Video Interleave
Format profile : OpenDML
File size : 1.63 GiB
Duration : 1h 40mn
Overall bit rate mode : Variable
Overall bit rate : 2 316 Kbps
Writing application : Lavf52.84.0

Video
ID : 0
Format : AVC
Format/Info : Advanced Video Codec
Format profile : High@L3.1
Format settings, CABAC : Yes
Format settings, ReFrames : 1 frame
Format settings, GOP : M=1, N=15
Codec ID : H264
Duration : 1h 40mn
Bit rate mode : Variable
Bit rate : 2 145 Kbps
Maximum bit rate : 3 216 Kbps
Width : 1 280 pixels
Height : 720 pixels
Display aspect ratio : 16:9
Frame rate : 23.976 fps
Color space : YUV
Chroma subsampling : 4:2:0
Bit depth : 8 bits
Scan type : Progressive
Bits/(Pixel*Frame) : 0.097
Stream size : 1.51 GiB (93%)

Audio
ID : 1
Format : AC-3
Format/Info : Audio Coding 3
Mode extension : CM (complete main)
Format settings, Endianness : Big
Codec ID : 2000
Duration : 1h 40mn
Bit rate mode : Constant
Bit rate : 160 Kbps
Channel(s) : 2 channels
Channel positions : Front: L R
Sampling rate : 48.0 KHz
Bit depth : 16 bits
Compression mode : Lossy
Stream size : 115 MiB (7%)
Alignment : Aligned on interleaves
Interleave, duration : 32 ms (0.77 video frame)